<mxfile host="app.diagrams.net" modified="2020-11-13T02:40:07.648Z" agent="5.0 (Windows NT 10.0; Win64; x64) AppleWebKit/537.36 (KHTML, like Gecko) Chrome/86.0.4240.193 Safari/537.36" etag="r2mq8GXGJ39lXFvYiQg7" version="13.9.6" type="github">
  <diagram id="kgpKYQtTHZ0yAKxKKP6v" name="Page-1">
    <mxGraphModel dx="1770" dy="338" grid="1" gridSize="10" guides="1" tooltips="1" connect="1" arrows="1" fold="1" page="1" pageScale="1" pageWidth="1100" pageHeight="850" math="0" shadow="0">
      <root>
        <mxCell id="0" />
        <mxCell id="1" parent="0" />
        <mxCell id="wkqNDu4oZNAe2_1UIhFU-5" value="APP" style="shape=umlLifeline;perimeter=lifelinePerimeter;container=1;collapsible=0;recursiveResize=0;rounded=0;shadow=0;strokeWidth=1;" parent="1" vertex="1">
          <mxGeometry x="-130" y="360" width="100" height="720" as="geometry" />
        </mxCell>
        <mxCell id="wkqNDu4oZNAe2_1UIhFU-6" value="" style="points=[];perimeter=orthogonalPerimeter;rounded=0;shadow=0;strokeWidth=1;" parent="wkqNDu4oZNAe2_1UIhFU-5" vertex="1">
          <mxGeometry x="45" y="300" width="11" height="640" as="geometry" />
        </mxCell>
        <mxCell id="Cnj2iCvaiaWYSwRsUYoD-34" value="" style="points=[];perimeter=orthogonalPerimeter;rounded=0;shadow=0;strokeWidth=1;" vertex="1" parent="wkqNDu4oZNAe2_1UIhFU-5">
          <mxGeometry x="45.69" y="64" width="10" height="70" as="geometry" />
        </mxCell>
        <mxCell id="wkqNDu4oZNAe2_1UIhFU-16" value="VAN" style="shape=umlLifeline;perimeter=lifelinePerimeter;container=1;collapsible=0;recursiveResize=0;rounded=0;shadow=0;strokeWidth=1;" parent="1" vertex="1">
          <mxGeometry x="190" y="360" width="100" height="720" as="geometry" />
        </mxCell>
        <mxCell id="Cnj2iCvaiaWYSwRsUYoD-5" value="" style="points=[];perimeter=orthogonalPerimeter;rounded=0;shadow=0;strokeWidth=1;" vertex="1" parent="wkqNDu4oZNAe2_1UIhFU-16">
          <mxGeometry x="44.55000000000007" y="505" width="10.91" height="150" as="geometry" />
        </mxCell>
        <mxCell id="wkqNDu4oZNAe2_1UIhFU-17" value="TMS SERVER" style="shape=umlLifeline;perimeter=lifelinePerimeter;container=1;collapsible=0;recursiveResize=0;rounded=0;shadow=0;strokeWidth=1;size=40;" parent="1" vertex="1">
          <mxGeometry x="30" y="360" width="100" height="720" as="geometry" />
        </mxCell>
        <mxCell id="wkqNDu4oZNAe2_1UIhFU-38" value="" style="edgeStyle=orthogonalEdgeStyle;rounded=0;orthogonalLoop=1;jettySize=auto;html=1;startArrow=none;startFill=0;" parent="wkqNDu4oZNAe2_1UIhFU-17" target="wkqNDu4oZNAe2_1UIhFU-33" edge="1">
          <mxGeometry relative="1" as="geometry">
            <mxPoint x="70" y="370" as="targetPoint" />
            <Array as="points">
              <mxPoint x="80" y="355" />
              <mxPoint x="80" y="370" />
            </Array>
            <mxPoint x="49.99999999999977" y="355" as="sourcePoint" />
          </mxGeometry>
        </mxCell>
        <mxCell id="Cnj2iCvaiaWYSwRsUYoD-9" value="" style="points=[];perimeter=orthogonalPerimeter;rounded=0;shadow=0;strokeWidth=1;" vertex="1" parent="wkqNDu4oZNAe2_1UIhFU-17">
          <mxGeometry x="45" y="320" width="10" height="130" as="geometry" />
        </mxCell>
        <mxCell id="wkqNDu4oZNAe2_1UIhFU-33" value="" style="points=[];perimeter=orthogonalPerimeter;rounded=0;shadow=0;strokeWidth=1;" parent="wkqNDu4oZNAe2_1UIhFU-17" vertex="1">
          <mxGeometry x="50" y="360" width="10" height="30" as="geometry" />
        </mxCell>
        <mxCell id="Cnj2iCvaiaWYSwRsUYoD-23" value="" style="points=[];perimeter=orthogonalPerimeter;rounded=0;shadow=0;strokeWidth=1;" vertex="1" parent="wkqNDu4oZNAe2_1UIhFU-17">
          <mxGeometry x="44.55" y="700" width="10.91" height="150" as="geometry" />
        </mxCell>
        <mxCell id="wkqNDu4oZNAe2_1UIhFU-18" value="카드사" style="shape=umlLifeline;perimeter=lifelinePerimeter;container=1;collapsible=0;recursiveResize=0;rounded=0;shadow=0;strokeWidth=1;" parent="1" vertex="1">
          <mxGeometry x="350" y="360" width="100" height="720" as="geometry" />
        </mxCell>
        <mxCell id="Cnj2iCvaiaWYSwRsUYoD-10" value="" style="edgeStyle=orthogonalEdgeStyle;rounded=0;orthogonalLoop=1;jettySize=auto;html=1;startArrow=none;startFill=0;" edge="1" parent="wkqNDu4oZNAe2_1UIhFU-18" target="Cnj2iCvaiaWYSwRsUYoD-12">
          <mxGeometry relative="1" as="geometry">
            <mxPoint x="40" y="220" as="targetPoint" />
            <Array as="points">
              <mxPoint x="80" y="565" />
              <mxPoint x="80" y="580" />
            </Array>
            <mxPoint x="49.999999999999545" y="565" as="sourcePoint" />
          </mxGeometry>
        </mxCell>
        <mxCell id="Cnj2iCvaiaWYSwRsUYoD-11" value="" style="points=[];perimeter=orthogonalPerimeter;rounded=0;shadow=0;strokeWidth=1;" vertex="1" parent="wkqNDu4oZNAe2_1UIhFU-18">
          <mxGeometry x="45" y="520" width="10" height="120" as="geometry" />
        </mxCell>
        <mxCell id="Cnj2iCvaiaWYSwRsUYoD-12" value="" style="points=[];perimeter=orthogonalPerimeter;rounded=0;shadow=0;strokeWidth=1;" vertex="1" parent="wkqNDu4oZNAe2_1UIhFU-18">
          <mxGeometry x="50" y="570" width="10" height="30" as="geometry" />
        </mxCell>
        <mxCell id="wkqNDu4oZNAe2_1UIhFU-19" value="사용자" style="shape=umlActor;verticalLabelPosition=bottom;verticalAlign=top;html=1;outlineConnect=0;" parent="1" vertex="1">
          <mxGeometry x="-262.13" y="280" width="40" height="60" as="geometry" />
        </mxCell>
        <mxCell id="wkqNDu4oZNAe2_1UIhFU-23" value="" style="endArrow=classic;html=1;" parent="1" target="wkqNDu4oZNAe2_1UIhFU-6" edge="1">
          <mxGeometry width="50" height="50" relative="1" as="geometry">
            <mxPoint x="-240" y="690" as="sourcePoint" />
            <mxPoint x="-90" y="690" as="targetPoint" />
          </mxGeometry>
        </mxCell>
        <mxCell id="wkqNDu4oZNAe2_1UIhFU-25" value="&lt;font style=&quot;font-size: 10px&quot;&gt;① 결제하기 버튼 클릭&lt;/font&gt;" style="text;html=1;strokeColor=none;fillColor=none;align=center;verticalAlign=middle;whiteSpace=wrap;rounded=0;" parent="1" vertex="1">
          <mxGeometry x="-217.13" y="650" width="107.5" height="33" as="geometry" />
        </mxCell>
        <mxCell id="wkqNDu4oZNAe2_1UIhFU-35" value="&lt;font style=&quot;font-size: 10px&quot;&gt;② Rule/CRule API 호출&lt;/font&gt;" style="text;html=1;strokeColor=none;fillColor=none;align=center;verticalAlign=middle;whiteSpace=wrap;rounded=0;" parent="1" vertex="1">
          <mxGeometry x="-60.49" y="671" width="118" height="20" as="geometry" />
        </mxCell>
        <mxCell id="wkqNDu4oZNAe2_1UIhFU-36" value="&lt;span style=&quot;font-size: 10px&quot;&gt;TMS&amp;nbsp; KEY TOKEN,&lt;br&gt;금액, 할부기간 전송&lt;br&gt;&lt;/span&gt;" style="rounded=0;whiteSpace=wrap;html=1;" parent="1" vertex="1">
          <mxGeometry x="-48" y="710" width="98" height="50" as="geometry" />
        </mxCell>
        <mxCell id="wkqNDu4oZNAe2_1UIhFU-39" value="" style="startArrow=none;startFill=0;startSize=7;endArrow=block;endFill=0;endSize=10;dashed=1;html=1;entryX=1.043;entryY=0.219;entryDx=0;entryDy=0;entryPerimeter=0;" parent="1" source="Cnj2iCvaiaWYSwRsUYoD-9" target="wkqNDu4oZNAe2_1UIhFU-6" edge="1">
          <mxGeometry width="100" relative="1" as="geometry">
            <mxPoint x="70.54" y="799.88" as="sourcePoint" />
            <mxPoint x="-70" y="800" as="targetPoint" />
            <Array as="points">
              <mxPoint x="-0.45999999999999996" y="799.88" />
            </Array>
          </mxGeometry>
        </mxCell>
        <mxCell id="wkqNDu4oZNAe2_1UIhFU-41" value="" style="endArrow=classic;html=1;entryX=-0.043;entryY=0.154;entryDx=0;entryDy=0;entryPerimeter=0;" parent="1" source="wkqNDu4oZNAe2_1UIhFU-6" edge="1" target="Cnj2iCvaiaWYSwRsUYoD-9">
          <mxGeometry width="50" height="50" relative="1" as="geometry">
            <mxPoint x="-70" y="700" as="sourcePoint" />
            <mxPoint x="72" y="700" as="targetPoint" />
          </mxGeometry>
        </mxCell>
        <mxCell id="wkqNDu4oZNAe2_1UIhFU-42" value="&lt;span style=&quot;font-size: 10px&quot;&gt;③ 응답&lt;br&gt;(터미널, VAN 정보 전송)&lt;br&gt;&lt;/span&gt;" style="text;html=1;strokeColor=none;fillColor=none;align=center;verticalAlign=middle;whiteSpace=wrap;rounded=0;" parent="1" vertex="1">
          <mxGeometry x="-57" y="811" width="118" height="20" as="geometry" />
        </mxCell>
        <mxCell id="wkqNDu4oZNAe2_1UIhFU-43" value="" style="startArrow=none;startFill=0;startSize=7;endArrow=block;endFill=0;endSize=10;dashed=1;html=1;" parent="1" edge="1">
          <mxGeometry width="100" relative="1" as="geometry">
            <mxPoint x="-85" y="820" as="sourcePoint" />
            <mxPoint x="-240" y="820" as="targetPoint" />
            <Array as="points">
              <mxPoint x="-155.5" y="820" />
            </Array>
          </mxGeometry>
        </mxCell>
        <mxCell id="wkqNDu4oZNAe2_1UIhFU-44" value="&lt;font style=&quot;font-size: 10px&quot;&gt;④ 카드 인식 화면 출력&amp;nbsp;&lt;/font&gt;" style="text;html=1;strokeColor=none;fillColor=none;align=center;verticalAlign=middle;whiteSpace=wrap;rounded=0;" parent="1" vertex="1">
          <mxGeometry x="-217.13" y="791" width="115" height="20" as="geometry" />
        </mxCell>
        <mxCell id="wkqNDu4oZNAe2_1UIhFU-45" value="&lt;span style=&quot;font-size: 10px&quot;&gt;Sub Process&lt;br&gt;금액, 할부기간 check&amp;nbsp;&lt;br&gt;&lt;/span&gt;" style="text;html=1;strokeColor=none;fillColor=none;align=center;verticalAlign=middle;whiteSpace=wrap;rounded=0;" parent="1" vertex="1">
          <mxGeometry x="90" y="685" width="100" height="20" as="geometry" />
        </mxCell>
        <mxCell id="Cnj2iCvaiaWYSwRsUYoD-1" value="" style="endArrow=classic;html=1;" edge="1" parent="1">
          <mxGeometry width="50" height="50" relative="1" as="geometry">
            <mxPoint x="-240" y="893" as="sourcePoint" />
            <mxPoint x="-85.00000000000023" y="893" as="targetPoint" />
          </mxGeometry>
        </mxCell>
        <mxCell id="Cnj2iCvaiaWYSwRsUYoD-2" value="&lt;font style=&quot;font-size: 10px&quot;&gt;⑤ 카드 삽입&lt;/font&gt;" style="text;html=1;strokeColor=none;fillColor=none;align=center;verticalAlign=middle;whiteSpace=wrap;rounded=0;" vertex="1" parent="1">
          <mxGeometry x="-211.5" y="867" width="90" height="20" as="geometry" />
        </mxCell>
        <mxCell id="Cnj2iCvaiaWYSwRsUYoD-6" value="" style="endArrow=classic;html=1;exitX=1.024;exitY=0.377;exitDx=0;exitDy=0;exitPerimeter=0;" edge="1" parent="1" source="wkqNDu4oZNAe2_1UIhFU-6">
          <mxGeometry width="50" height="50" relative="1" as="geometry">
            <mxPoint x="-70.3589800000002" y="901.4" as="sourcePoint" />
            <mxPoint x="234.54999999999995" y="901.4" as="targetPoint" />
          </mxGeometry>
        </mxCell>
        <mxCell id="Cnj2iCvaiaWYSwRsUYoD-7" value="&lt;font style=&quot;font-size: 10px&quot;&gt;⑥ 소켓통신 → 결제요청&lt;/font&gt;" style="text;html=1;strokeColor=none;fillColor=none;align=center;verticalAlign=middle;whiteSpace=wrap;rounded=0;" vertex="1" parent="1">
          <mxGeometry x="93" y="874" width="120" height="20" as="geometry" />
        </mxCell>
        <mxCell id="Cnj2iCvaiaWYSwRsUYoD-8" value="&lt;span style=&quot;font-size: 10px&quot;&gt;카드, 결제, 터미널 VAN, 세금관련 정보 전송&lt;br&gt;&lt;/span&gt;" style="rounded=0;whiteSpace=wrap;html=1;" vertex="1" parent="1">
          <mxGeometry x="99.5" y="910" width="113.5" height="50" as="geometry" />
        </mxCell>
        <mxCell id="Cnj2iCvaiaWYSwRsUYoD-13" value="" style="endArrow=classic;html=1;" edge="1" parent="1" target="Cnj2iCvaiaWYSwRsUYoD-11">
          <mxGeometry width="50" height="50" relative="1" as="geometry">
            <mxPoint x="245.4600000000002" y="916" as="sourcePoint" />
            <mxPoint x="392.96" y="916" as="targetPoint" />
          </mxGeometry>
        </mxCell>
        <mxCell id="Cnj2iCvaiaWYSwRsUYoD-14" value="&lt;font style=&quot;font-size: 10px&quot;&gt;⑦ 카드 정보 전송&lt;/font&gt;" style="text;html=1;strokeColor=none;fillColor=none;align=center;verticalAlign=middle;whiteSpace=wrap;rounded=0;" vertex="1" parent="1">
          <mxGeometry x="257" y="890" width="120" height="20" as="geometry" />
        </mxCell>
        <mxCell id="Cnj2iCvaiaWYSwRsUYoD-15" value="&lt;span style=&quot;font-size: 10px&quot;&gt;⑧ 카드 유효성 확인&lt;br&gt;(분실, 한도체크)&lt;br&gt;&lt;/span&gt;" style="text;html=1;strokeColor=none;fillColor=none;align=center;verticalAlign=middle;whiteSpace=wrap;rounded=0;" vertex="1" parent="1">
          <mxGeometry x="400" y="870" width="120" height="20" as="geometry" />
        </mxCell>
        <mxCell id="Cnj2iCvaiaWYSwRsUYoD-16" value="&lt;font style=&quot;font-size: 10px&quot;&gt;⑨ 승인&lt;/font&gt;" style="text;html=1;strokeColor=none;fillColor=none;align=center;verticalAlign=middle;whiteSpace=wrap;rounded=0;" vertex="1" parent="1">
          <mxGeometry x="256" y="976" width="120" height="20" as="geometry" />
        </mxCell>
        <mxCell id="Cnj2iCvaiaWYSwRsUYoD-19" value="" style="startArrow=none;startFill=0;startSize=7;endArrow=block;endFill=0;endSize=10;dashed=1;html=1;" edge="1" parent="1">
          <mxGeometry width="100" relative="1" as="geometry">
            <mxPoint x="394.27" y="970.0000000000001" as="sourcePoint" />
            <mxPoint x="245.72000000000025" y="970.0000000000001" as="targetPoint" />
            <Array as="points">
              <mxPoint x="318.81" y="970" />
            </Array>
          </mxGeometry>
        </mxCell>
        <mxCell id="Cnj2iCvaiaWYSwRsUYoD-20" value="" style="startArrow=none;startFill=0;startSize=7;endArrow=block;endFill=0;endSize=10;dashed=1;html=1;entryX=1.035;entryY=0.516;entryDx=0;entryDy=0;entryPerimeter=0;" edge="1" parent="1" source="Cnj2iCvaiaWYSwRsUYoD-5" target="wkqNDu4oZNAe2_1UIhFU-6">
          <mxGeometry width="100" relative="1" as="geometry">
            <mxPoint x="228.26999999999998" y="989.86" as="sourcePoint" />
            <mxPoint x="-70" y="990" as="targetPoint" />
            <Array as="points">
              <mxPoint x="152.81" y="989.86" />
            </Array>
          </mxGeometry>
        </mxCell>
        <mxCell id="Cnj2iCvaiaWYSwRsUYoD-21" value="&lt;font style=&quot;font-size: 10px&quot;&gt;⑩ 승인&lt;/font&gt;" style="text;html=1;strokeColor=none;fillColor=none;align=center;verticalAlign=middle;whiteSpace=wrap;rounded=0;" vertex="1" parent="1">
          <mxGeometry x="-60.49" y="996" width="120" height="20" as="geometry" />
        </mxCell>
        <mxCell id="Cnj2iCvaiaWYSwRsUYoD-22" value="&lt;span style=&quot;font-size: 10px&quot;&gt;카드 정보 전송&lt;br&gt;&lt;/span&gt;" style="rounded=0;whiteSpace=wrap;html=1;" vertex="1" parent="1">
          <mxGeometry x="-44.5" y="1017" width="93" height="30" as="geometry" />
        </mxCell>
        <mxCell id="Cnj2iCvaiaWYSwRsUYoD-24" value="" style="endArrow=classic;html=1;entryX=-0.046;entryY=0.14;entryDx=0;entryDy=0;entryPerimeter=0;exitX=1.031;exitY=0.658;exitDx=0;exitDy=0;exitPerimeter=0;" edge="1" parent="1" source="wkqNDu4oZNAe2_1UIhFU-6" target="Cnj2iCvaiaWYSwRsUYoD-23">
          <mxGeometry width="50" height="50" relative="1" as="geometry">
            <mxPoint x="-70" y="1081" as="sourcePoint" />
            <mxPoint x="70" y="1081" as="targetPoint" />
          </mxGeometry>
        </mxCell>
        <mxCell id="Cnj2iCvaiaWYSwRsUYoD-25" value="&lt;font style=&quot;font-size: 10px&quot;&gt;⑪ PUSH API 호출&lt;/font&gt;" style="text;html=1;strokeColor=none;fillColor=none;align=center;verticalAlign=middle;whiteSpace=wrap;rounded=0;" vertex="1" parent="1">
          <mxGeometry x="-47.25" y="1090" width="90" height="20" as="geometry" />
        </mxCell>
        <mxCell id="Cnj2iCvaiaWYSwRsUYoD-27" value="&lt;font style=&quot;font-size: 10px&quot;&gt;⑫ 응답 완료&lt;/font&gt;" style="text;html=1;strokeColor=none;fillColor=none;align=center;verticalAlign=middle;whiteSpace=wrap;rounded=0;" vertex="1" parent="1">
          <mxGeometry x="-60.49000000000001" y="1196" width="120" height="20" as="geometry" />
        </mxCell>
        <mxCell id="Cnj2iCvaiaWYSwRsUYoD-28" value="" style="startArrow=none;startFill=0;startSize=7;endArrow=block;endFill=0;endSize=10;dashed=1;html=1;exitX=-0.046;exitY=0.867;exitDx=0;exitDy=0;exitPerimeter=0;entryX=1.043;entryY=0.828;entryDx=0;entryDy=0;entryPerimeter=0;" edge="1" parent="1" source="Cnj2iCvaiaWYSwRsUYoD-23" target="wkqNDu4oZNAe2_1UIhFU-6">
          <mxGeometry width="100" relative="1" as="geometry">
            <mxPoint x="70" y="1190" as="sourcePoint" />
            <mxPoint x="-70.76999999999975" y="1190" as="targetPoint" />
            <Array as="points">
              <mxPoint x="2.319999999999993" y="1190" />
            </Array>
          </mxGeometry>
        </mxCell>
        <mxCell id="Cnj2iCvaiaWYSwRsUYoD-29" value="&lt;span style=&quot;font-size: 10px&quot;&gt;광원거래번호(trxId)&lt;br&gt;&lt;/span&gt;" style="rounded=0;whiteSpace=wrap;html=1;" vertex="1" parent="1">
          <mxGeometry x="-43" y="1218" width="93" height="30" as="geometry" />
        </mxCell>
        <mxCell id="Cnj2iCvaiaWYSwRsUYoD-30" value="&lt;span style=&quot;font-size: 10px&quot;&gt;⑬ 결제완료 화면 출력&lt;/span&gt;" style="text;html=1;strokeColor=none;fillColor=none;align=center;verticalAlign=middle;whiteSpace=wrap;rounded=0;" vertex="1" parent="1">
          <mxGeometry x="-222.13" y="1222" width="120" height="20" as="geometry" />
        </mxCell>
        <mxCell id="Cnj2iCvaiaWYSwRsUYoD-31" value="" style="startArrow=none;startFill=0;startSize=7;endArrow=block;endFill=0;endSize=10;dashed=1;html=1;exitX=-0.046;exitY=0.867;exitDx=0;exitDy=0;exitPerimeter=0;" edge="1" parent="1">
          <mxGeometry width="100" relative="1" as="geometry">
            <mxPoint x="-85.59185999999988" y="1216.05" as="sourcePoint" />
            <mxPoint x="-240" y="1216" as="targetPoint" />
            <Array as="points">
              <mxPoint x="-157.32" y="1216" />
            </Array>
          </mxGeometry>
        </mxCell>
        <mxCell id="Cnj2iCvaiaWYSwRsUYoD-33" value="앱 시작" style="text;html=1;strokeColor=none;fillColor=none;align=center;verticalAlign=middle;whiteSpace=wrap;rounded=0;" vertex="1" parent="1">
          <mxGeometry x="-312.13" y="415" width="50" height="20" as="geometry" />
        </mxCell>
        <mxCell id="Cnj2iCvaiaWYSwRsUYoD-36" value="&lt;span style=&quot;font-size: 10px&quot;&gt;결제금액, 할부기간 입력&lt;br&gt;&lt;/span&gt;" style="rounded=0;whiteSpace=wrap;html=1;" vertex="1" parent="1">
          <mxGeometry x="-218.51" y="530" width="120" height="30" as="geometry" />
        </mxCell>
        <mxCell id="Cnj2iCvaiaWYSwRsUYoD-37" value="사용자" style="shape=umlLifeline;perimeter=lifelinePerimeter;container=1;collapsible=0;recursiveResize=0;rounded=0;shadow=0;strokeWidth=1;" vertex="1" parent="1">
          <mxGeometry x="-290" y="360" width="100" height="940" as="geometry" />
        </mxCell>
        <mxCell id="Cnj2iCvaiaWYSwRsUYoD-39" value="&lt;span style=&quot;font-size: 10px&quot;&gt;KEY TOKEN 값, &lt;br&gt;결제정보 전송&lt;/span&gt;&lt;span style=&quot;font-size: 10px&quot;&gt;&lt;br&gt;&lt;/span&gt;" style="rounded=0;whiteSpace=wrap;html=1;" vertex="1" parent="1">
          <mxGeometry x="-45.5" y="1113" width="93" height="30" as="geometry" />
        </mxCell>
        <mxCell id="Cnj2iCvaiaWYSwRsUYoD-42" value="" style="startArrow=none;startFill=0;startSize=7;endArrow=block;endFill=0;endSize=10;dashed=1;html=1;" edge="1" parent="1">
          <mxGeometry width="100" relative="1" as="geometry">
            <mxPoint x="-86.19" y="475" as="sourcePoint" />
            <mxPoint x="-241.19" y="475" as="targetPoint" />
            <Array as="points">
              <mxPoint x="-156.69" y="475" />
            </Array>
          </mxGeometry>
        </mxCell>
        <mxCell id="Cnj2iCvaiaWYSwRsUYoD-44" value="" style="endArrow=classic;html=1;entryX=-0.05;entryY=0.282;entryDx=0;entryDy=0;entryPerimeter=0;" edge="1" parent="1" target="Cnj2iCvaiaWYSwRsUYoD-34">
          <mxGeometry width="50" height="50" relative="1" as="geometry">
            <mxPoint x="-240.29780487804857" y="443.74" as="sourcePoint" />
            <mxPoint x="-90.31" y="444" as="targetPoint" />
          </mxGeometry>
        </mxCell>
        <mxCell id="Cnj2iCvaiaWYSwRsUYoD-45" value="&lt;span style=&quot;font-size: 10px&quot;&gt;TMS KEY 토큰 값 발급&lt;/span&gt;" style="text;html=1;strokeColor=none;fillColor=none;align=center;verticalAlign=middle;whiteSpace=wrap;rounded=0;" vertex="1" parent="1">
          <mxGeometry x="-214.88" y="415" width="112.75" height="20" as="geometry" />
        </mxCell>
        <mxCell id="Cnj2iCvaiaWYSwRsUYoD-46" value="&lt;span style=&quot;font-size: 10px&quot;&gt;KEY 토큰 값 발급 성공&lt;/span&gt;" style="text;html=1;strokeColor=none;fillColor=none;align=center;verticalAlign=middle;whiteSpace=wrap;rounded=0;" vertex="1" parent="1">
          <mxGeometry x="-216.32" y="485" width="112.75" height="20" as="geometry" />
        </mxCell>
        <mxCell id="Cnj2iCvaiaWYSwRsUYoD-51" value="" style="endArrow=classic;html=1;" edge="1" parent="1">
          <mxGeometry width="50" height="50" relative="1" as="geometry">
            <mxPoint x="-237.45" y="570" as="sourcePoint" />
            <mxPoint x="-82.45000000000023" y="570" as="targetPoint" />
          </mxGeometry>
        </mxCell>
        <mxCell id="Cnj2iCvaiaWYSwRsUYoD-52" value="" style="edgeStyle=orthogonalEdgeStyle;rounded=0;orthogonalLoop=1;jettySize=auto;html=1;startArrow=none;startFill=0;" edge="1" parent="1" target="Cnj2iCvaiaWYSwRsUYoD-54">
          <mxGeometry relative="1" as="geometry">
            <mxPoint x="-48" y="180" as="targetPoint" />
            <Array as="points">
              <mxPoint x="-8" y="525" />
              <mxPoint x="-8" y="540" />
            </Array>
            <mxPoint x="-38" y="525" as="sourcePoint" />
          </mxGeometry>
        </mxCell>
        <mxCell id="Cnj2iCvaiaWYSwRsUYoD-53" value="" style="points=[];perimeter=orthogonalPerimeter;rounded=0;shadow=0;strokeWidth=1;" vertex="1" parent="1">
          <mxGeometry x="-43" y="510" width="10" height="70" as="geometry" />
        </mxCell>
        <mxCell id="Cnj2iCvaiaWYSwRsUYoD-54" value="" style="points=[];perimeter=orthogonalPerimeter;rounded=0;shadow=0;strokeWidth=1;" vertex="1" parent="1">
          <mxGeometry x="-38" y="530" width="10" height="30" as="geometry" />
        </mxCell>
        <mxCell id="Cnj2iCvaiaWYSwRsUYoD-55" value="&lt;span style=&quot;font-size: 10px&quot;&gt;Sub Process&lt;br&gt;금액, 할부기간 check&amp;nbsp;&lt;br&gt;&lt;/span&gt;" style="text;html=1;strokeColor=none;fillColor=none;align=center;verticalAlign=middle;whiteSpace=wrap;rounded=0;" vertex="1" parent="1">
          <mxGeometry x="-28" y="495" width="100" height="20" as="geometry" />
        </mxCell>
      </root>
    </mxGraphModel>
  </diagram>
</mxfile>
